<svg xmlns="http://www.w3.org/2000/svg" xmlns:xlink="http://www.w3.org/1999/xlink" width="500" zoomAndPan="magnify" viewBox="0 0 375 374.999991" height="500" preserveAspectRatio="xMidYMid meet" version="1.0"><defs><g/><clipPath id="9e9363fe3d"><path d="M 30.140625 150.515625 L 344.859375 150.515625 L 344.859375 224.484375 L 30.140625 224.484375 Z M 30.140625 150.515625 " clip-rule="nonzero"/></clipPath><clipPath id="df1f4656a0"><path d="M 30.15625 150.515625 L 344.839844 150.515625 L 344.839844 224.472656 L 30.15625 224.472656 Z M 30.15625 150.515625 " clip-rule="nonzero"/></clipPath></defs><g clip-path="url(#9e9363fe3d)"><path fill="#ffffff" d="M 30.140625 150.515625 L 344.78125 150.515625 L 344.78125 224.484375 L 30.140625 224.484375 Z M 30.140625 150.515625 " fill-opacity="1" fill-rule="nonzero"/></g><g clip-path="url(#df1f4656a0)"><path stroke-linecap="butt" transform="matrix(0.75, 0, 0, 0.75, 30.155379, 150.517301)" fill="none" stroke-linejoin="miter" d="M 0.00116197 -0.00223402 L 419.579288 -0.00223402 L 419.579288 98.607141 L 0.00116197 98.607141 Z M 0.00116197 -0.00223402 " stroke="#000000" stroke-width="8" stroke-opacity="1" stroke-miterlimit="4"/></g><g fill="#000000" fill-opacity="1"><g transform="translate(36.13297, 201.953793)"><g><path d="M 21.296875 -37.28125 C 25.179688 -37.28125 28.828125 -36.285156 32.234375 -34.296875 L 27.3125 -26.96875 C 25.613281 -28.582031 23.65625 -29.390625 21.4375 -29.390625 C 20.28125 -29.390625 19.226562 -29.054688 18.28125 -28.390625 C 17.332031 -27.734375 16.859375 -26.925781 16.859375 -25.96875 C 16.859375 -25.257812 17.195312 -24.640625 17.875 -24.109375 C 18.550781 -23.578125 19.785156 -23.054688 21.578125 -22.546875 C 24.015625 -21.804688 25.78125 -21.085938 26.875 -20.390625 C 27.96875 -19.703125 28.816406 -18.851562 29.421875 -17.84375 C 30.035156 -16.832031 30.34375 -15.570312 30.34375 -14.0625 C 30.34375 -11.882812 29.78125 -9.570312 28.65625 -7.125 C 27.53125 -4.6875 25.691406 -2.742188 23.140625 -1.296875 C 20.585938 0.140625 17.5625 0.894531 14.0625 0.96875 C 9.570312 0.96875 5.523438 -0.410156 1.921875 -3.171875 L 7.171875 -10.796875 C 9.679688 -8.285156 12.269531 -7.03125 14.9375 -7.03125 C 16.414062 -7.03125 17.660156 -7.414062 18.671875 -8.1875 C 19.679688 -8.957031 20.1875 -9.9375 20.1875 -11.125 C 20.1875 -12.664062 18.644531 -13.851562 15.5625 -14.6875 C 11.832031 -15.71875 9.421875 -16.816406 8.328125 -17.984375 C 7.242188 -19.160156 6.703125 -20.726562 6.703125 -22.6875 C 6.703125 -26.800781 8.101562 -30.257812 10.90625 -33.0625 C 13.71875 -35.875 17.179688 -37.28125 21.296875 -37.28125 Z M 21.296875 -37.28125 "/></g></g></g><g fill="#000000" fill-opacity="1"><g transform="translate(60.653328, 201.953793)"><g><path d="M 18.25 -36.328125 L 32.03125 -14.109375 L 32.125 -14.109375 L 35.640625 -36.328125 L 45.09375 -36.328125 L 39.359375 0 L 29.921875 0 L 16.140625 -22.25 L 16.046875 -22.25 L 12.53125 0 L 3.078125 0 L 8.8125 -36.328125 Z M 18.25 -36.328125 "/></g></g></g><g fill="#000000" fill-opacity="1"><g transform="translate(97.988129, 201.953793)"><g><path d="M 29.484375 -36.328125 L 28.234375 -28.328125 L 17 -28.328125 L 16.046875 -22.25 L 26.6875 -22.25 L 25.4375 -14.265625 L 14.78125 -14.265625 L 13.78125 -8 L 25 -8 L 23.75 0 L 3.078125 0 L 8.8125 -36.328125 Z M 29.484375 -36.328125 "/></g></g></g><g fill="#000000" fill-opacity="1"><g transform="translate(119.37714, 201.953793)"><g><path d="M 29.8125 -36.328125 L 37.765625 0 L 27.703125 0 L 26.34375 -6.3125 L 13.34375 -6.3125 L 9.828125 0 L -0.1875 0 L 19.515625 -36.328125 Z M 17.09375 -13.53125 L 24.953125 -13.53125 L 22.9375 -25.09375 L 22.828125 -25.09375 Z M 17.09375 -13.53125 "/></g></g></g><g fill="#000000" fill-opacity="1"><g transform="translate(151.89449, 201.953793)"><g><path d="M 18.25 -36.328125 L 15.890625 -21.34375 L 16 -21.34375 L 29.765625 -36.328125 L 41.46875 -36.328125 L 24.328125 -19.125 L 37.046875 0 L 24.8125 0 L 15.125 -15.75 L 15.03125 -15.75 L 12.53125 0 L 3.078125 0 L 8.8125 -36.328125 Z M 18.25 -36.328125 "/></g></g></g><g fill="#000000" fill-opacity="1"><g transform="translate(183.303829, 201.953793)"><g><path d="M 29.484375 -36.328125 L 28.234375 -28.328125 L 17 -28.328125 L 16.046875 -22.25 L 26.6875 -22.25 L 25.4375 -14.265625 L 14.78125 -14.265625 L 13.78125 -8 L 25 -8 L 23.75 0 L 3.078125 0 L 8.8125 -36.328125 Z M 29.484375 -36.328125 "/></g></g></g><g fill="#000000" fill-opacity="1"><g transform="translate(204.692832, 201.953793)"><g><path d="M 23.171875 -36.328125 C 26.441406 -36.328125 29.066406 -35.554688 31.046875 -34.015625 C 33.023438 -32.472656 34.015625 -30.253906 34.015625 -27.359375 C 34.015625 -24.273438 33.097656 -21.550781 31.265625 -19.1875 C 29.429688 -16.832031 27.085938 -15.398438 24.234375 -14.890625 L 33.28125 0 L 21.53125 0 L 14.84375 -13.96875 L 14.734375 -13.96875 L 12.53125 0 L 3.078125 0 L 8.8125 -36.328125 Z M 15.703125 -20.046875 L 17 -20.046875 C 19.21875 -20.046875 20.9375 -20.507812 22.15625 -21.4375 C 23.375 -22.363281 23.984375 -23.726562 23.984375 -25.53125 C 23.984375 -27.90625 22.023438 -29.09375 18.109375 -29.09375 L 17.15625 -29.09375 Z M 15.703125 -20.046875 "/></g></g></g><path stroke-linecap="butt" transform="matrix(0.903363, 0, 0, 0.903363, 225.934648, 154.075538)" fill="none" stroke-linejoin="miter" d="M 36.36467 26.284856 C 35.547411 24.857897 34.384224 23.763895 32.875106 23.00285 C 31.365989 22.237481 29.701203 21.856959 27.889398 21.856959 C 24.512261 21.856959 21.563212 23.154195 19.033603 25.748666 C 16.508318 28.343137 15.245675 31.421909 15.245675 34.980659 C 15.245675 37.644316 16.10185 39.806375 17.809877 41.462512 C 19.522228 43.114326 21.779418 43.935908 24.581447 43.935908 C 26.293798 43.935908 28.006149 43.555386 29.722824 42.794341 C 31.452471 42.028972 32.974561 40.986859 34.293417 39.668003 L 32.265405 52.203623 C 31.517333 52.450098 30.211449 52.817648 28.34343 53.310597 C 26.479735 53.816519 24.620364 54.067318 22.773965 54.067318 C 19.5352 54.067318 16.508318 53.362487 13.69764 51.957148 C 10.891288 50.55181 8.629774 48.580012 6.900126 46.046078 C 5.183451 43.503496 4.305655 40.541475 4.271062 37.15569 C 4.271062 32.606718 5.391009 28.403674 7.630902 24.550885 C 9.870796 20.689447 12.966864 17.58473 16.927757 15.241058 C 20.892974 12.897385 24.974942 11.725549 29.177985 11.725549 C 32.165951 11.725549 35.236075 12.400112 38.397006 13.744913 Z M 78.978858 29.004727 C 78.978858 32.874813 77.858911 36.896243 75.619018 41.060369 C 73.383449 45.220171 70.218194 48.467585 66.127578 50.811257 C 62.041286 53.154929 57.647981 54.326765 52.951989 54.326765 C 47.300366 54.326765 42.7168 52.666304 39.192643 49.341056 C 35.677135 46.015809 33.917219 41.639801 33.917219 36.204384 C 33.917219 31.724598 35.097703 27.595064 37.458672 23.807136 C 39.828289 20.014884 43.049757 17.009622 47.118753 14.787025 C 51.192072 12.564428 55.390791 11.45313 59.723558 11.45313 C 63.178529 11.45313 66.408645 12.201202 69.409584 13.693023 C 72.414846 15.184844 74.758518 17.260421 76.440601 19.91543 C 78.135655 22.56179 78.978858 25.592997 78.978858 29.004727 Z M 54.556237 44.19968 C 56.977743 44.19968 59.208988 43.533765 61.245648 42.206261 C 63.29528 40.870108 64.921149 39.144785 66.127578 37.038939 C 67.334007 34.920121 67.939383 32.827248 67.939383 30.760319 C 67.939383 28.200441 66.970781 26.029733 65.0379 24.252521 C 63.100695 22.470984 60.778643 21.58454 58.071745 21.58454 C 55.978872 21.58454 53.898971 22.155323 51.832042 23.301215 C 49.778086 24.438458 48.1133 25.964872 46.846333 27.88478 C 45.588015 29.804689 44.961018 31.932155 44.961018 34.275827 C 44.961018 37.160015 45.851786 39.533956 47.641971 41.397651 C 49.43648 43.26567 51.741235 44.19968 54.556237 44.19968 Z M 91.397727 12.793607 L 106.657541 37.37622 L 106.76132 37.37622 L 110.657351 12.793607 L 121.108745 12.793607 L 114.756615 52.999261 L 104.313869 52.999261 L 89.054054 28.364757 L 88.950275 28.364757 L 85.058569 52.999261 L 74.60285 52.999261 L 80.95498 12.793607 Z M 91.397727 12.793607 " stroke="#ffffff" stroke-width="5.399997" stroke-opacity="1" stroke-miterlimit="4"/><g fill="#000000" fill-opacity="1"><g transform="translate(225.934648, 201.953793)"><g><path d="M 32.859375 -24.140625 C 32.117188 -25.421875 31.066406 -26.40625 29.703125 -27.09375 C 28.335938 -27.78125 26.832031 -28.125 25.1875 -28.125 C 22.144531 -28.125 19.484375 -26.953125 17.203125 -24.609375 C 14.921875 -22.265625 13.78125 -19.488281 13.78125 -16.28125 C 13.78125 -13.875 14.550781 -11.921875 16.09375 -10.421875 C 17.632812 -8.929688 19.671875 -8.1875 22.203125 -8.1875 C 23.742188 -8.1875 25.289062 -8.53125 26.84375 -9.21875 C 28.40625 -9.914062 29.78125 -10.859375 30.96875 -12.046875 L 29.140625 -0.71875 C 28.460938 -0.5 27.28125 -0.164062 25.59375 0.28125 C 23.914062 0.738281 22.238281 0.96875 20.5625 0.96875 C 17.644531 0.96875 14.914062 0.332031 12.375 -0.9375 C 9.84375 -2.207031 7.796875 -3.988281 6.234375 -6.28125 C 4.679688 -8.582031 3.890625 -11.257812 3.859375 -14.3125 C 3.859375 -18.414062 4.867188 -22.207031 6.890625 -25.6875 C 8.910156 -29.175781 11.710938 -31.976562 15.296875 -34.09375 C 18.878906 -36.21875 22.5625 -37.28125 26.34375 -37.28125 C 29.039062 -37.28125 31.820312 -36.671875 34.6875 -35.453125 Z M 32.859375 -24.140625 "/></g></g></g><g fill="#000000" fill-opacity="1"><g transform="translate(252.622866, 201.953793)"><g><path d="M 44.65625 -21.671875 C 44.65625 -18.171875 43.640625 -14.539062 41.609375 -10.78125 C 39.585938 -7.03125 36.726562 -4.09375 33.03125 -1.96875 C 29.34375 0.144531 25.378906 1.203125 21.140625 1.203125 C 16.035156 1.203125 11.894531 -0.296875 8.71875 -3.296875 C 5.539062 -6.296875 3.953125 -10.253906 3.953125 -15.171875 C 3.953125 -19.222656 5.019531 -22.957031 7.15625 -26.375 C 9.289062 -29.789062 12.195312 -32.503906 15.875 -34.515625 C 19.550781 -36.523438 23.347656 -37.53125 27.265625 -37.53125 C 30.378906 -37.53125 33.289062 -36.851562 36 -35.5 C 38.71875 -34.15625 40.835938 -32.285156 42.359375 -29.890625 C 43.890625 -27.492188 44.65625 -24.753906 44.65625 -21.671875 Z M 22.59375 -7.953125 C 24.78125 -7.953125 26.796875 -8.550781 28.640625 -9.75 C 30.484375 -10.957031 31.953125 -12.515625 33.046875 -14.421875 C 34.140625 -16.335938 34.6875 -18.226562 34.6875 -20.09375 C 34.6875 -22.40625 33.8125 -24.363281 32.0625 -25.96875 C 30.3125 -27.570312 28.210938 -28.375 25.765625 -28.375 C 23.878906 -28.375 22.003906 -27.859375 20.140625 -26.828125 C 18.273438 -25.804688 16.769531 -24.425781 15.625 -22.6875 C 14.488281 -20.957031 13.921875 -19.03125 13.921875 -16.90625 C 13.921875 -14.300781 14.726562 -12.15625 16.34375 -10.46875 C 17.96875 -8.789062 20.050781 -7.953125 22.59375 -7.953125 Z M 22.59375 -7.953125 "/></g></g></g><g fill="#000000" fill-opacity="1"><g transform="translate(290.246722, 201.953793)"><g><path d="M 18.25 -36.328125 L 32.03125 -14.109375 L 32.125 -14.109375 L 35.640625 -36.328125 L 45.09375 -36.328125 L 39.359375 0 L 29.921875 0 L 16.140625 -22.25 L 16.046875 -22.25 L 12.53125 0 L 3.078125 0 L 8.8125 -36.328125 Z M 18.25 -36.328125 "/></g></g></g></svg>